<?xml version="1.0" encoding="utf-8"?>
<!-- Generator: Adobe Illustrator 22.0.1, SVG Export Plug-In . SVG Version: 6.00 Build 0)  -->
<svg version="1.1" id="Layer_1" xmlns="http://www.w3.org/2000/svg" xmlns:xlink="http://www.w3.org/1999/xlink" x="0px" y="0px"
	 width="26px" height="26px" viewBox="0 0 26 26" enable-background="new 0 0 26 26" xml:space="preserve">
<path id="Github_logo" fill="#FFFFFF" d="M13,0C5.7,0.1-0.1,6.1,0,13.3C0,19,3.5,24.1,8.9,26c0.3,0.1,0.7,0,0.8-0.4
	c0-0.1,0-0.2,0-0.3c0-0.3,0-1.2,0-2.3c-3.6,0.8-4.4-1.8-4.4-1.8c-0.2-0.8-0.7-1.5-1.4-1.9C2.8,18.5,4,18.5,4,18.5
	c0.8,0.1,1.6,0.6,2,1.4c0.7,1.3,2.3,1.9,3.7,1.2c0,0,0.1,0,0.1-0.1c0.1-0.7,0.4-1.3,0.8-1.8c-2.9-0.3-5.9-1.5-5.9-6.6
	c0-1.3,0.5-2.6,1.3-3.6C5.6,7.9,5.7,6.7,6.2,5.5c0,0,1.1-0.4,3.6,1.4c2.1-0.6,4.4-0.6,6.5,0c2.5-1.7,3.6-1.4,3.6-1.4
	c0.5,1.1,0.5,2.4,0.1,3.5c0.9,1,1.4,2.3,1.3,3.6c0,5.1-3,6.2-5.9,6.6c0.6,0.7,0.9,1.6,0.9,2.5c0,1.8,0,3.2,0,3.7
	c0,0.4,0.3,0.7,0.6,0.7c0.1,0,0.2,0,0.3,0c5.4-1.9,8.9-7,8.9-12.7C26.1,6.1,20.3,0.1,13,0z"/>
</svg>
