<?xml version="1.0" encoding="utf-8"?>
<!-- Generator: Adobe Illustrator 22.0.1, SVG Export Plug-In . SVG Version: 6.00 Build 0)  -->
<svg version="1.1" id="Layer_1" xmlns="http://www.w3.org/2000/svg" xmlns:xlink="http://www.w3.org/1999/xlink" x="0px" y="0px"
	 width="23px" height="25px" viewBox="0 0 23 25" enable-background="new 0 0 23 25" xml:space="preserve">
<path id="Golos_logo" fill="#FFFFFF" d="M15.1,1c0.6,0.5,1,1,1.4,1.6c0.6,1.1,1,2.4,1,3.7c0.1,1.8-0.1,3.6-0.6,5.4
	c-0.4,1.5-1.1,2.9-1.9,4.2c0.5-0.3,1.1-0.5,1.7-0.7c0.9-0.3,1.8-0.4,2.8-0.4c0.7,0,1.5,0.2,2.1,0.5c0.5,0.3,0.9,0.7,1.1,1.2
	c0.3,0.7,0.5,1.6,0.4,2.4c-0.1,0.9-0.3,1.7-0.7,2.5c-0.1-0.7-0.3-1.3-0.6-1.9c-0.2-0.5-0.6-0.9-1.1-1.1c-0.6-0.2-1.3-0.2-1.9,0
	c-0.8,0.2-1.5,0.6-2.1,1c-1.2,0.7-2.4,1.5-3.5,2.2c-1.1,0.7-2.2,1.4-3.3,2c-0.7,0.4-1.4,0.6-2.1,0.9c-1.4,0.4-2.8,0.5-4.3,0.3
	c-0.7-0.1-1.4-0.4-2-0.9c-0.7-0.6-1.1-1.4-1.3-2.3c0.5,0.4,1.2,0.7,1.8,0.8c0.6,0.1,1.2,0.2,1.9,0c0.6-0.2,1.2-0.5,1.7-1
	c0.8-0.8,1.5-1.9,1.8-3c0.3-0.8,0.5-1.7,0.5-2.6c0-0.1,0-0.1,0-0.2c-0.7-0.1-1.4-0.2-2.1-0.4C5,15.2,4.4,15,3.8,14.7
	c-0.5-0.2-1-0.5-1.5-0.9c-1.1-0.8-1.9-1.9-2.3-3.2c0.4,0.3,0.9,0.6,1.4,0.8c0.7,0.3,1.5,0.4,2.3,0.5C4.6,12,5.4,12,6.2,12
	c1.3,0,2.5-0.2,3.7-0.7c1.4-0.5,2.6-1.4,3.5-2.6c0.9-1.3,1.5-2.8,1.7-4.4C15.2,3.2,15.2,2.1,15.1,1 M13.3,4.6
	c-0.1-1.2-0.6-2.3-1.4-3.1c-0.8-0.8-1.7-1.3-2.8-1.4c-1-0.2-2,0-2.9,0.5C5.3,1,4.5,1.8,4,2.7c-1,2-0.6,4.5,1.1,6
	c-0.9,0.6-1.7,1.2-2.6,1.7c0.4,0,0.9,0.1,1.3,0.1c1.4,0.1,2.9,0,4.3-0.3c0.7-0.1,1.5-0.4,2.2-0.7c1-0.4,1.8-1.1,2.3-2
	C13.2,6.7,13.4,5.7,13.3,4.6L13.3,4.6z M10.9,2.8C9.8,1.5,7.8,1.2,6.4,2.2C6.3,2.1,6.2,2,6.1,1.8C7.7,0.7,10,1,11.3,2.5L10.9,2.8z"
	/>
</svg>
