<?xml version="1.0" encoding="utf-8"?>
<!-- Generator: Adobe Illustrator 22.0.1, SVG Export Plug-In . SVG Version: 6.00 Build 0)  -->
<svg version="1.1" id="Layer_1" xmlns="http://www.w3.org/2000/svg" xmlns:xlink="http://www.w3.org/1999/xlink" x="0px" y="0px"
	 width="313.8px" height="202px" viewBox="0 0 313.8 202" enable-background="new 0 0 313.8 202" xml:space="preserve">
<g>
	<path fill="#3E3E40" d="M24.7,49.7c8.5,0,14.3-4,18.3-9.6l-5-2.7c-2.7,4-7.8,7-13.3,7c-10.5,0-18.5-8.1-18.5-19.5
		c0-11.5,8-19.5,18.5-19.5c5.5,0,10.5,2.9,13.3,7l5-2.8C39.1,4,33.2,0,24.7,0C10.9,0,0,10.1,0,24.9S10.9,49.7,24.7,49.7z"/>
	<polygon fill="#3E3E40" points="81.6,0.8 66.7,23.1 51.8,0.8 44.8,0.8 63.7,28.5 63.7,48.9 69.7,48.9 69.7,28.5 88.6,0.8 	"/>
	<path fill="#3E3E40" d="M130.7,35.9c0-5.8-4.2-11-9.4-11.8c4.4-0.9,8.4-5,8.4-11c0-7.2-5.1-12.2-13.5-12.2H94.9v48.1h21.9
		C125.6,48.9,130.7,43.6,130.7,35.9z M100.9,6.1h14.4c5.4,0,8.3,3.5,8.3,7.8c0,4.4-2.9,7.7-8.3,7.7h-14.4V6.1z M100.9,43.5V27h14.8
		c5.8,0,8.9,3.9,8.9,8.3c0,5.1-3.3,8.3-8.9,8.3H100.9z"/>
	<polygon fill="#3E3E40" points="170.8,43.5 145.3,43.5 145.3,27 170.3,27 170.3,21.6 145.3,21.6 145.3,6.1 170.8,6.1 170.8,0.8 
		139.3,0.8 139.3,48.9 170.8,48.9 	"/>
	<path fill="#3E3E40" d="M187.2,29.8h9.7L209,48.9h7.1l-13-19.6c6.6-0.6,12.5-5.3,12.5-14c0-8.9-6.3-14.5-15.1-14.5h-19.3v48.1h6
		V29.8z M187.2,6.1h12.6c5.7,0,9.7,3.7,9.7,9.2c0,5.4-4,9.2-9.7,9.2h-12.6V6.1z"/>
	<path fill="#3E3E40" d="M29.6,64.6H1.8v66.1h27.8c20.7,0,35.7-12.6,35.7-33.1C65.3,77.1,50.4,64.6,29.6,64.6z M29.6,115.8H18.9
		V79.4h10.8c12.1,0,18.2,7.9,18.2,18.1C47.9,107.4,41.2,115.8,29.6,115.8z"/>
	<path fill="#3E3E40" d="M129.6,106.4c6.2-2.2,13.2-8.3,13.2-19.8c0-12.3-8.3-22-23-22H86.7v66.1h17v-22.2h8.7l11.1,22.2h19.5
		L129.6,106.4z M117.3,93.6h-13.5V79.4h13.5c4.6,0,8.2,2.5,8.2,7C125.5,91.1,121.8,93.6,117.3,93.6z"/>
	<path fill="#3E3E40" d="M290.9,64.6h-33.1v66.1h17v-22.2h16c14.9,0,23-10,23-21.9C313.8,74.6,305.7,64.6,290.9,64.6z M288.3,93.6
		h-13.5V79.4h13.5c4.6,0,8.2,2.6,8.2,7.1C296.5,91,292.8,93.6,288.3,93.6z"/>
	<path fill="#F15A22" d="M249.9,153c-1.3,0-2.4,0.3-3.5,0.8l-24.3-29.7c7.6-6.1,12.4-15.3,12.4-26.4c0-9.2-3.3-17-8.6-22.9l38-34.8
		c1.8,1.3,4.1,2.2,6.7,2.2c6.3,0,10.9-4.4,10.9-10.6c0-6.2-4.7-10.6-10.9-10.6c-6.3,0-11,4.4-11,10.6c0,2.3,0.8,4.3,2,6l-38,34.8
		c-6.2-5.6-14.7-8.9-24.3-8.9c-20.2,0-35.4,14.1-35.4,34.2c0,13.8,7.2,24.6,18.2,30.1l-22.3,46.5c-1.5-0.4-3-0.7-4.6-0.7
		c-8.4,0-14.7,5.9-14.7,14.2c0,8.4,6.3,14.2,14.7,14.2c8.4,0,14.7-5.9,14.7-14.2c0-5.5-2.7-9.9-7-12.3l22.2-46.2
		c4.3,1.7,9.1,2.6,14.2,2.6c7.7,0,14.6-2.1,20.3-5.7l24.3,29.7c-1.1,1.3-1.8,2.9-1.8,4.9c0,4.5,3.4,7.7,7.9,7.7
		c4.5,0,7.9-3.2,7.9-7.7C257.8,156.2,254.4,153,249.9,153z"/>
</g>
</svg>
