<?xml version="1.0" encoding="utf-8"?>
<!-- Generator: Adobe Illustrator 22.0.1, SVG Export Plug-In . SVG Version: 6.00 Build 0)  -->
<svg version="1.1" id="Layer_1" xmlns="http://www.w3.org/2000/svg" xmlns:xlink="http://www.w3.org/1999/xlink" x="0px" y="0px"
	 width="21px" height="16.7px" viewBox="0 0 21 16.7" enable-background="new 0 0 21 16.7" xml:space="preserve">
<path id="Medium_logo" fill="#FFFFFF" d="M2.5,3.4c0-0.3-0.1-0.5-0.3-0.7l-2-2.4V0h6.1L11,10.3L15.2,0H21v0.4L19.3,2
	c-0.1,0.1-0.2,0.3-0.2,0.5v11.8c0,0.2,0,0.4,0.2,0.5l1.6,1.6v0.4h-8.2v-0.4l1.7-1.6c0.1-0.1,0.2-0.3,0.2-0.5V4.7l-4.7,12H9.2
	l-5.5-12v8c0,0.3,0.1,0.7,0.3,0.9l2.2,2.7v0.4H0v-0.4l2.2-2.7c0.2-0.2,0.3-0.6,0.3-0.9V3.4L2.5,3.4z"/>
</svg>
