<?xml version="1.0" encoding="utf-8"?>
<!-- Generator: Adobe Illustrator 22.0.1, SVG Export Plug-In . SVG Version: 6.00 Build 0)  -->
<svg version="1.1" id="Layer_1" xmlns="http://www.w3.org/2000/svg" xmlns:xlink="http://www.w3.org/1999/xlink" x="0px" y="0px"
	 width="19px" height="26.6px" viewBox="0 0 19 26.6" enable-background="new 0 0 19 26.6" xml:space="preserve">
<path id="Reddit_logo" fill="#FFFFFF" d="M19,7.8c0-1.2-0.9-2.1-2.1-2.1c-0.5,0-1.1,0.2-1.5,0.6c-1.7-1-3.6-1.6-5.5-1.6L11.1,1
	l3.2,0.8c0,0,0,0,0,0.1c0,1,0.8,1.7,1.7,1.7c1,0,1.7-0.8,1.7-1.7C17.8,0.8,17,0,16,0c-0.7,0-1.4,0.4-1.6,1.1L11,0.3
	c-0.2,0-0.3,0.1-0.3,0.2L9.3,4.6c-2,0-4,0.6-5.8,1.6C3.2,5.9,2.6,5.7,2.1,5.7C0.9,5.7,0,6.6,0,7.8c0,0.7,0.4,1.4,1,1.8
	c0,0.2,0,0.5,0,0.7c0,2.1,1.7,3.9,4.3,4.9v0.1C3.9,16,3.1,17.5,3.2,19c-0.1,1.7,1,3.2,2.6,3.8c0.1,0.4,0.3,0.8,0.4,1.2
	c-0.1,0-0.2,0-0.3,0c-1.2-0.1-2.2,0.8-2.3,1.9c0,0.2,0,0.3,0.1,0.5c0,0.1,0.2,0.2,0.3,0.2h11c0.1,0,0.2-0.1,0.3-0.2
	c0.1-0.2,0.1-0.3,0.1-0.5c-0.1-1.2-1.2-2-2.3-1.9c-0.1,0-0.2,0-0.3,0c0.2-0.4,0.3-0.8,0.4-1.2c1.6-0.5,2.7-2.1,2.6-3.8
	c0.1-1.5-0.8-2.9-2.1-3.6v-0.1c2.6-1,4.3-2.8,4.3-4.9c0-0.2,0-0.4-0.1-0.6C18.6,9.3,19,8.6,19,7.8z M5.7,9.3c0-0.5,0.4-1,1-1
	c0.5,0,1,0.4,1,1c0,0.5-0.4,1-1,1C6.1,10.2,5.7,9.8,5.7,9.3L5.7,9.3z M12.5,13c-0.8,0.7-1.9,1-3,0.9l0,0c-1.1,0.1-2.2-0.2-3-0.9
	c-0.1-0.1-0.1-0.3,0-0.4c0.1-0.1,0.3-0.1,0.4,0l0,0c0.7,0.6,1.7,0.9,2.6,0.8l0,0c0.9,0.1,1.9-0.2,2.6-0.8c0.1-0.1,0.3-0.1,0.4,0l0,0
	C12.7,12.7,12.7,12.9,12.5,13L12.5,13z M12.4,10.2c-0.5,0-1-0.4-1-1c0-0.5,0.4-1,1-1c0.5,0,1,0.4,1,1l0,0
	C13.3,9.8,12.9,10.2,12.4,10.2L12.4,10.2z"/>
</svg>
