<?xml version="1.0" encoding="utf-8"?>
<!-- Generator: Adobe Illustrator 22.0.1, SVG Export Plug-In . SVG Version: 6.00 Build 0)  -->
<svg version="1.1" id="Layer_1" xmlns="http://www.w3.org/2000/svg" xmlns:xlink="http://www.w3.org/1999/xlink" x="0px" y="0px"
	 width="23px" height="23.4px" viewBox="0 0 23 23.4" enable-background="new 0 0 23 23.4" xml:space="preserve">
<path id="Steemit_logo" fill="#FFFFFF" d="M20.3,7.1C19.4,6.2,18.2,5.4,17,5c0.6-1.4,1.8-2.4,3.2-2.8c-3.8-1.8-8.1-2.4-12.3-1.8
	C5.7,0.7,3.6,1.9,2.2,3.7C-1,7.4-0.6,13,3.1,16.3l0.1,0.1c0.6,0.5,1.9,1.3,1.9,1.3c-0.9,2.2-3.6,2.8-3.6,2.8C4.1,22,7,23,10,23.3
	c1.4,0.2,2.7,0.2,4.1,0.1c2.4-0.3,4.5-1.3,6.2-3C23.9,16.7,23.9,10.8,20.3,7.1L20.3,7.1z M18.6,18.8c-1.4,1.3-3.1,2.1-5,2.3
	c-1.2,0.1-2.3,0.1-3.5,0C8.7,20.9,7.3,20.6,6,20c0.6-0.6,1.1-1.3,1.5-2.1c0.2-0.4,0.1-0.9,0-1.3C6.1,14,6.7,10.8,8.8,8.8
	c1.5-1.5,3.7-2.2,5.8-1.9c1.6,0.2,3,0.9,4.1,2C21.4,11.6,21.4,16.1,18.6,18.8L18.6,18.8z"/>
</svg>
