<?xml version="1.0" encoding="utf-8"?>
<!-- Generator: Adobe Illustrator 22.0.1, SVG Export Plug-In . SVG Version: 6.00 Build 0)  -->
<svg version="1.1" id="Layer_1" xmlns="http://www.w3.org/2000/svg" xmlns:xlink="http://www.w3.org/1999/xlink" x="0px" y="0px"
	 width="27px" height="23px" viewBox="0 0 27 23" enable-background="new 0 0 27 23" xml:space="preserve">
<path id="telegram" fill="#FFFFFF" d="M25,0.3L1,9.6c0,0-1.1,0.4-1,1.1c0.2,0.5,0.5,0.9,1,1l6,2l14.5-9.1c0,0,0.8-0.5,0.8,0
	c0,0,0.2,0.1-0.3,0.5S10.7,15.2,10.7,15.2l0,0.1l0,0l-0.8,6.5c0.2,0.1,0.5,0,0.6-0.1l3.9-3.5l0,0l6.1,4.6c0.8,0.4,1.7,0.2,2.2-0.6
	c0-0.1,0.1-0.1,0.1-0.2L27,0.8C27-0.6,25,0.3,25,0.3z"/>
</svg>
