<?xml version="1.0" encoding="utf-8"?>
<!-- Generator: Adobe Illustrator 22.0.1, SVG Export Plug-In . SVG Version: 6.00 Build 0)  -->
<svg version="1.1" id="Layer_1" xmlns="http://www.w3.org/2000/svg" xmlns:xlink="http://www.w3.org/1999/xlink" x="0px" y="0px"
	 width="25.8px" height="20.9px" viewBox="0 0 25.8 20.9" enable-background="new 0 0 25.8 20.9" xml:space="preserve">
<path id="Twitter_logo" fill="#FFFFFF" d="M25.8,2.5c-1,0.4-2,0.7-3,0.8c1.1-0.7,1.9-1.7,2.3-2.9c-1,0.6-2.2,1-3.4,1.3
	c-2-2.1-5.3-2.3-7.5-0.3c-1.4,1.3-2,3.2-1.6,5.1C8.4,6.3,4.5,4.3,1.8,1C1.3,1.8,1.1,2.7,1.1,3.6C1.1,5.4,2,7,3.4,8
	C2.6,8,1.8,7.7,1,7.3v0.1c0,2.5,1.8,4.7,4.2,5.2c-0.5,0.1-0.9,0.2-1.4,0.2c-0.3,0-0.7,0-1-0.1c0.7,2.2,2.7,3.6,4.9,3.7
	c-1.9,1.5-4.2,2.3-6.6,2.2c-0.4,0-0.8,0-1.3-0.1c7,4.5,16.3,2.4,20.8-4.6c1.5-2.4,2.4-5.2,2.4-8l0-0.7C24.2,4.5,25.1,3.5,25.8,2.5z"
	/>
</svg>
